<svg xmlns="http://www.w3.org/2000/svg" width="512" height="512" viewBox="0 0 512 512">
  <rect width="512" height="512" fill="#fffdf7"/>
  <g fill="none" stroke="#d8dfd1" stroke-width="1" opacity=".55">
    <path d="M-30 80 C80 30 130 132 230 70 C315 18 405 85 552 28"/>
    <path d="M-20 176 C92 130 170 220 255 160 C340 102 423 185 540 126"/>
    <path d="M-24 274 C96 224 178 306 274 248 C350 202 430 278 548 230"/>
    <path d="M-22 380 C96 332 184 415 286 352 C365 304 438 385 542 334"/>
  </g>
  <g fill="#f3e6bf" opacity=".28">
    <circle cx="98" cy="92" r="3"/>
    <circle cx="226" cy="214" r="4"/>
    <circle cx="396" cy="122" r="3"/>
    <circle cx="456" cy="404" r="5"/>
    <circle cx="146" cy="416" r="4"/>
  </g>
</svg>
